<svg id="Calque_1" data-name="Calque 1" xmlns="http://www.w3.org/2000/svg" version="1.1" viewBox="0 0 100 100">
  <path class="rest-svg" d="M83.6,6.2h-1.8c-1.8,0-3.4.6-4.5,1.8-2.9,2.9-9.2,8.7-16.7,11-1.1.3-2.1-.6-2-1.7.5-6.6-5-12.3-11.6-12-13.3,1-14.6,19.5-1.5,22.2,3.4,1.4,13,.9,20.8-3.4,1.5-.8,3.1.8,2.4,2.4l-1.3,2.8c-.2.2-.4.3-.6.5-2.9,2.9-9.2,8.7-16.7,11-1.1.3-2.1-.6-2-1.7.5-6.6-5-12.3-11.6-12-13.3,1-14.6,19.5-1.5,22.2,3.4,1.4,13,.9,20.8-3.4,1.5-.8,3.1.8,2.4,2.4l-1.9,4.3c-3.1,3.1-9.1,8.2-16.1,10.4-1.1.3-2.1-.6-2-1.7.5-6.6-5-12.3-11.6-12-13.3,1-14.6,19.5-1.5,22.2,3.4,1.4,13,.9,20.8-3.4,1.5-.8,3.1.8,2.4,2.4l-1.4,3.3c-.2.2-.4.4-.6.6-2.9,2.9-9.2,8.7-16.7,11-1.1.3-2.1-.6-2-1.7.5-6.6-5-12.3-11.6-12-13.3,1-14.6,19.5-1.5,22.2,3.4,1.4,13,.9,20.8-3.4,1.5-.8,3.9.6,3.2,2.1l-.2,1.8c-.6,1.4.3,2.9,1.8,3h.9c1.2.1,2.3-.6,2.9-1.6,3.1-6.4,4.4-8.9,5.8-11.8,4.2-8.7,9-18.7,12.4-26.5,9.8-20.8,20.3-43.3,22.8-49.4.3-.8-.3-1.7-1.1-1.7Z"/>
</svg>